<?xml version="1.0" standalone="no"?>
<!DOCTYPE svg PUBLIC "-//W3C//DTD SVG 20010904//EN"
 "http://www.w3.org/TR/2001/REC-SVG-20010904/DTD/svg10.dtd">
<svg version="1.0" xmlns="http://www.w3.org/2000/svg"
 width="500.000000pt" height="500.000000pt" viewBox="0 0 500.000000 500.000000"
 preserveAspectRatio="xMidYMid meet">

<g transform="translate(0.000000,500.000000) scale(0.100000,-0.100000)"
fill="#000000" stroke="none">
<path d="M3404 4976 c-79 -35 -100 -128 -41 -192 101 -110 265 16 187 144 -19
31 -72 63 -102 62 -7 -1 -27 -7 -44 -14z"/>
<path d="M3455 4599 c-4 -6 -13 -8 -21 -5 -8 3 -11 0 -7 -10 4 -10 0 -12 -13
-7 -17 6 -17 5 -5 -10 7 -9 18 -17 24 -17 6 0 7 3 4 7 -4 3 3 17 15 30 12 13
19 23 15 23 -3 0 -9 -5 -12 -11z"/>
<path d="M3480 4580 c0 -9 5 -21 10 -26 15 -15 1 -44 -20 -44 -9 0 -27 9 -40
20 -13 11 -28 20 -34 19 -6 0 -6 -3 2 -6 6 -2 9 -10 5 -16 -3 -7 -3 -9 2 -5 4
4 17 1 29 -7 48 -34 88 0 61 52 -8 15 -15 21 -15 13z"/>
<path d="M3450 4560 c0 -5 5 -10 11 -10 5 0 7 5 4 10 -3 6 -8 10 -11 10 -2 0
-4 -4 -4 -10z"/>
<path d="M3795 4335 c-14 -13 -25 -31 -25 -40 0 -23 45 -65 70 -65 28 0 60 35
60 65 0 30 -32 65 -60 65 -12 0 -32 -11 -45 -25z"/>
<path d="M3169 4242 c6 -2 9 -8 6 -12 -3 -5 8 -4 25 1 16 6 30 12 30 13 0 1
-16 2 -36 2 -21 0 -32 -2 -25 -4z"/>
<path d="M3250 4241 c0 -5 -6 -11 -12 -14 -7 -2 -5 -3 5 -1 13 2 17 -2 13 -12
-3 -8 -1 -14 3 -14 5 0 11 6 14 13 3 9 7 9 20 -2 10 -7 17 -11 17 -8 0 3 -13
15 -30 27 -16 12 -30 17 -30 11z"/>
<path d="M3135 4218 c-11 -6 -21 -11 -21 -12 -1 -1 -4 -12 -8 -26 -6 -24 -6
-24 9 3 9 15 20 25 24 22 5 -3 11 2 15 10 6 18 7 18 -19 3z"/>
<path d="M3300 4180 c0 -5 5 -10 11 -10 5 0 7 5 4 10 -3 6 -8 10 -11 10 -2 0
-4 -4 -4 -10z"/>
<path d="M3315 4152 c-6 -4 -10 -18 -9 -32 1 -14 -5 -33 -14 -42 -8 -10 -11
-18 -5 -18 11 0 29 34 37 73 7 29 6 30 -9 19z"/>
<path d="M3165 4100 c3 -5 11 -10 16 -10 6 0 7 5 4 10 -3 6 -11 10 -16 10 -6
0 -7 -4 -4 -10z"/>
<path d="M3115 4080 c-3 -5 -1 -10 4 -10 6 0 11 5 11 10 0 6 -2 10 -4 10 -3 0
-8 -4 -11 -10z"/>
<path d="M3148 4078 c7 -7 12 -21 12 -32 0 -14 3 -17 11 -9 13 13 -5 53 -23
53 -9 0 -9 -3 0 -12z"/>
<path d="M3186 4033 c-6 -14 -5 -15 5 -6 7 7 10 15 7 18 -3 3 -9 -2 -12 -12z"/>
<path d="M3392 4014 c-15 -10 -22 -25 -22 -48 0 -64 70 -90 109 -39 24 30 20
58 -11 86 -25 21 -47 22 -76 1z"/>
<path d="M3672 4007 c-56 -60 16 -142 82 -94 26 19 24 76 -4 99 -30 24 -52 23
-78 -5z"/>
<path d="M3915 3786 c-56 -25 -89 -82 -78 -137 8 -40 56 -87 97 -94 68 -13
146 49 146 115 0 39 -33 92 -71 112 -40 21 -54 22 -94 4z"/>
<path d="M3096 3748 c-9 -12 -16 -29 -16 -38 0 -9 7 -26 16 -38 23 -34 83 -27
104 11 13 24 13 30 0 55 -21 37 -81 44 -104 10z"/>
<path d="M3422 3623 c10 -12 7 -13 -15 -8 -27 7 -38 -7 -17 -20 6 -4 7 -11 4
-17 -4 -7 -2 -8 5 -4 9 6 9 11 0 22 -14 17 2 19 18 3 6 -6 9 -19 6 -28 -4 -13
-3 -13 5 -2 6 8 8 21 4 29 -3 9 -1 13 4 10 5 -3 15 0 21 8 8 8 9 15 3 19 -6 3
-10 1 -10 -4 0 -6 -5 -11 -11 -11 -5 0 -8 4 -5 8 3 5 -1 9 -9 9 -11 0 -12 -3
-3 -14z"/>
<path d="M3470 3599 c0 -5 5 -7 10 -4 6 3 10 8 10 11 0 2 -4 4 -10 4 -5 0 -10
-5 -10 -11z"/>
<path d="M3510 3599 c-13 -9 -12 -10 2 -5 41 13 40 -81 0 -124 -28 -31 -18
-45 13 -18 13 12 22 24 20 28 -3 4 2 13 10 20 8 7 15 18 15 24 0 6 -5 4 -11
-4 -8 -11 -9 -7 -4 16 8 39 -21 80 -45 63z"/>
<path d="M3485 3570 c3 -5 10 -10 16 -10 5 0 9 5 9 10 0 6 -7 10 -16 10 -8 0
-12 -4 -9 -10z"/>
<path d="M3347 3505 c3 -8 9 -12 14 -9 12 7 11 11 -5 17 -10 4 -13 1 -9 -8z"/>
<path d="M3378 3473 c6 -2 9 -10 6 -15 -4 -7 -2 -8 5 -4 13 9 5 26 -12 25 -9
0 -8 -2 1 -6z"/>
<path d="M3413 3458 c-15 -31 -13 -56 5 -54 9 2 16 14 17 30 1 38 -10 50 -22
24z m12 -22 c0 -15 -4 -21 -9 -16 -5 5 -6 16 -3 24 9 22 12 20 12 -8z"/>
<path d="M3452 3420 c0 -14 2 -19 5 -12 2 6 2 18 0 25 -3 6 -5 1 -5 -13z"/>
<path d="M3471 3418 c-1 -22 11 -29 29 -17 13 7 12 9 -2 9 -9 0 -19 6 -21 13
-3 7 -6 6 -6 -5z"/>
<path d="M3647 3362 c-16 -17 -17 -102 -17 -1012 0 -851 -2 -1008 -16 -1098
-17 -120 -58 -246 -106 -330 -137 -243 -408 -441 -691 -503 -54 -12 -58 -11
-81 10 -90 85 -229 -27 -171 -139 32 -63 109 -77 171 -31 24 17 59 31 89 35
112 16 285 86 405 164 295 193 465 452 509 775 7 51 11 430 11 1096 0 973 -1
1019 -18 1034 -24 22 -65 21 -85 -1z"/>
<path d="M3162 3240 l-22 -21 0 -954 c0 -951 0 -955 -21 -1017 -12 -35 -36
-85 -54 -113 -37 -58 -131 -148 -184 -175 -32 -16 -39 -16 -56 -4 -47 34 -132
6 -161 -54 -57 -120 119 -218 199 -110 12 16 47 43 78 60 75 39 159 115 213
191 56 81 73 116 97 206 18 72 19 115 19 1021 l0 947 -23 21 c-29 27 -57 28
-85 2z"/>
<path d="M3857 3232 c-47 -52 8 -129 74 -102 61 26 45 112 -22 118 -24 2 -40
-3 -52 -16z"/>
<path d="M1183 2278 c3 -939 4 -954 25 -1043 109 -449 376 -794 761 -985 154
-77 344 -133 476 -142 l50 -3 0 350 0 349 -40 8 c-219 44 -428 216 -514 423
-62 148 -61 130 -61 1106 l0 889 -351 0 -350 0 4 -952z"/>
<path d="M3397 3198 c8 -44 13 -48 13 -10 0 17 -4 34 -10 37 -6 4 -7 -6 -3
-27z"/>
<path d="M3421 3194 c0 -11 3 -14 6 -6 3 7 2 16 -1 19 -3 4 -6 -2 -5 -13z"/>
<path d="M3491 3184 c0 -11 3 -14 6 -6 3 7 2 16 -1 19 -3 4 -6 -2 -5 -13z"/>
<path d="M3505 2790 c0 -206 1 -291 2 -187 2 103 2 271 0 375 -1 103 -2 18 -2
-188z"/>
<path d="M3869 2847 c-64 -43 -74 -112 -26 -173 l22 -29 0 -700 c0 -630 -2
-709 -18 -790 -50 -251 -158 -449 -344 -625 -200 -191 -393 -293 -663 -350
-58 -13 -110 -24 -117 -26 -6 -1 -19 -14 -28 -28 -20 -30 -13 -61 20 -82 22
-15 32 -14 107 0 251 50 440 131 622 267 234 176 399 395 480 639 63 190 66
229 66 1006 l0 696 25 30 c48 56 26 146 -42 174 -45 19 -65 18 -104 -9z"/>
<path d="M3390 2429 c0 -5 5 -7 11 -3 8 4 9 -4 4 -27 l-6 -34 15 29 c21 37 20
46 -4 46 -11 0 -20 -5 -20 -11z"/>
<path d="M3494 2255 c0 -82 2 -115 3 -72 2 43 2 110 0 150 -1 40 -3 5 -3 -78z"/>
<path d="M3394 2094 c-3 -19 -3 -39 2 -44 5 -5 9 10 10 36 1 53 -3 56 -12 8z"/>
<path d="M3500 2047 l5 -52 3 44 c2 24 0 47 -5 52 -4 4 -6 -15 -3 -44z"/>
<path d="M3504 1875 c0 -49 1 -71 3 -48 2 23 2 64 0 90 -2 26 -3 8 -3 -42z"/>
<path d="M3394 1701 c0 -11 5 -17 10 -14 5 4 7 -4 3 -17 -4 -16 -3 -20 5 -12
11 11 3 62 -10 62 -4 0 -8 -9 -8 -19z"/>
<path d="M3501 1654 c0 -11 3 -14 6 -6 3 7 2 16 -1 19 -3 4 -6 -2 -5 -13z"/>
<path d="M3407 1543 c-4 -3 -7 -11 -7 -17 0 -6 5 -5 12 2 6 6 9 14 7 17 -3 3
-9 2 -12 -2z"/>
<path d="M3411 1484 c0 -11 3 -14 6 -6 3 7 2 16 -1 19 -3 4 -6 -2 -5 -13z"/>
<path d="M3496 1483 c-6 -14 -5 -15 5 -6 7 7 10 15 7 18 -3 3 -9 -2 -12 -12z"/>
<path d="M3472 1460 c0 -14 2 -19 5 -12 2 6 2 18 0 25 -3 6 -5 1 -5 -13z"/>
<path d="M3495 1430 c-4 -12 -5 -24 -2 -27 3 -2 8 5 12 17 4 12 5 24 2 27 -3
2 -8 -5 -12 -17z"/>
<path d="M3401 1413 c1 -15 -3 -47 -9 -70 -8 -34 -7 -43 3 -43 8 0 15 -6 18
-12 5 -15 0 16 -9 52 -5 20 -4 22 6 10 9 -12 10 -11 5 9 -5 17 -4 21 5 16 9
-5 9 -3 2 11 -5 11 -7 24 -5 31 2 6 -1 14 -7 18 -6 4 -10 -4 -9 -22z"/>
<path d="M3497 1363 c-7 -12 -20 -79 -14 -73 6 6 27 80 22 80 -2 0 -6 -3 -8
-7z"/>
<path d="M3461 1343 c-1 -6 -4 -20 -7 -30 -5 -17 -5 -17 6 0 6 10 9 23 6 30
-3 9 -5 9 -5 0z"/>
<path d="M3385 1270 c3 -5 8 -10 11 -10 2 0 4 5 4 10 0 6 -5 10 -11 10 -5 0
-7 -4 -4 -10z"/>
<path d="M3420 1251 c0 -6 4 -13 10 -16 6 -3 7 1 4 9 -7 18 -14 21 -14 7z"/>
<path d="M3396 1237 c3 -10 9 -15 12 -12 3 3 0 11 -7 18 -10 9 -11 8 -5 -6z"/>
<path d="M3367 1213 c-4 -3 -7 -13 -7 -22 1 -13 3 -13 11 2 11 19 8 33 -4 20z"/>
<path d="M3421 1208 c-1 -21 15 -32 25 -17 4 7 3 9 -4 5 -6 -3 -13 2 -15 11
-4 16 -5 16 -6 1z"/>
<path d="M3381 1174 c0 -11 3 -14 6 -6 3 7 2 16 -1 19 -3 4 -6 -2 -5 -13z"/>
<path d="M3451 1170 c2 -8 -5 -33 -14 -54 -12 -27 -14 -43 -7 -50 7 -7 10 -3
10 12 0 12 4 22 10 22 5 0 7 7 4 15 -4 8 -1 21 4 28 7 8 8 18 1 27 -9 13 -10
13 -8 0z"/>
<path d="M3350 1159 c0 -5 5 -7 10 -4 6 3 10 8 10 11 0 2 -4 4 -10 4 -5 0 -10
-5 -10 -11z"/>
<path d="M3323 1080 c2 -8 8 -15 13 -15 5 0 15 -4 22 -8 7 -5 12 -4 12 2 0 10
-7 13 -26 10 -4 0 -11 5 -16 13 -8 10 -9 10 -5 -2z"/>
<path d="M3383 1048 c-22 -27 -48 -36 -40 -13 9 22 2 18 -16 -8 -14 -21 -13
-23 4 -24 10 -1 19 3 19 9 0 6 6 6 15 -2 18 -15 20 -35 3 -24 -7 5 -8 3 -3 -6
6 -10 14 -6 33 15 15 18 20 31 13 33 -6 2 -11 11 -11 19 0 13 2 14 18 2 15
-13 16 -12 3 4 -17 21 -16 22 -38 -5z m17 -33 c0 -8 -4 -15 -10 -15 -5 0 -10
7 -10 15 0 8 5 15 10 15 6 0 10 -7 10 -15z"/>
<path d="M3305 1050 c3 -5 8 -10 11 -10 2 0 4 5 4 10 0 6 -5 10 -11 10 -5 0
-7 -4 -4 -10z"/>
<path d="M3282 1009 c-19 -30 -8 -34 12 -4 9 14 13 25 9 25 -5 0 -14 -9 -21
-21z"/>
<path d="M3270 959 c0 -5 -4 -8 -8 -5 -4 2 -14 0 -22 -6 -12 -8 -12 -9 3 -4 9
3 17 1 17 -4 0 -6 -5 -10 -11 -10 -14 0 -60 -36 -60 -47 0 -4 -7 -16 -16 -25
-8 -9 -13 -23 -10 -30 4 -9 6 -8 6 3 1 18 89 102 99 95 4 -2 8 7 8 20 1 13 0
24 -2 24 -2 0 -4 -5 -4 -11z"/>
<path d="M3360 950 c0 -5 5 -10 11 -10 5 0 7 5 4 10 -3 6 -8 10 -11 10 -2 0
-4 -4 -4 -10z"/>
<path d="M3321 913 c3 -20 -2 -24 -15 -14 -10 8 -16 9 -21 1 -4 -6 -3 -10 2
-9 4 1 10 0 13 -1 19 -7 39 -7 34 1 -3 5 0 9 6 9 6 0 8 5 5 10 -7 12 -26 14
-24 3z"/>
<path d="M3282 868 c-17 -17 -15 -39 2 -32 9 3 12 12 9 21 -5 12 -3 14 7 8 9
-5 11 -4 6 3 -9 15 -9 15 -24 0z"/>
<path d="M3230 851 c0 -10 19 -25 25 -20 1 2 -3 10 -11 17 -8 7 -14 8 -14 3z"/>
<path d="M3219 812 c8 -15 7 -23 -4 -32 -8 -7 -15 -9 -15 -5 0 3 -12 -3 -26
-14 -21 -16 -30 -18 -40 -10 -10 8 -14 8 -14 0 0 -6 5 -11 11 -11 6 0 7 -5 2
-12 -16 -27 -12 -38 8 -25 11 7 17 17 15 24 -3 7 1 10 8 7 7 -3 20 4 30 15 10
11 22 18 26 16 4 -3 13 2 20 10 7 8 9 15 4 15 -5 1 2 8 16 16 14 8 17 13 7 10
-10 -3 -27 -1 -38 5 -18 9 -19 8 -10 -9z"/>
<path d="M3120 810 c0 -5 -3 -9 -7 -8 -12 3 -53 -22 -53 -32 0 -12 50 -7 51 5
0 6 8 18 16 28 10 10 12 17 5 17 -7 0 -12 -4 -12 -10z m-13 -25 c0 -8 -4 -15
-9 -15 -10 0 -11 14 -1 23 9 10 10 9 10 -8z"/>
<path d="M3176 804 c-5 -14 -4 -15 9 -4 17 14 19 20 6 20 -5 0 -12 -7 -15 -16z"/>
<path d="M3025 760 c-3 -5 -3 -10 2 -10 4 0 2 -4 -5 -9 -11 -7 -10 -9 3 -14 9
-4 13 -3 10 3 -3 6 1 10 9 10 10 0 13 6 10 15 -7 17 -20 20 -29 5z"/>
<path d="M2990 720 c8 -5 20 -10 25 -10 6 0 3 5 -5 10 -8 5 -19 10 -25 10 -5
0 -3 -5 5 -10z"/>
<path d="M3038 708 c-10 -10 -14 -18 -9 -18 10 0 36 29 30 34 -2 1 -12 -6 -21
-16z"/>
<path d="M2948 703 c7 -3 16 -2 19 1 4 3 -2 6 -13 5 -11 0 -14 -3 -6 -6z"/>
<path d="M2883 674 c-21 -21 -31 -24 -63 -19 -21 4 -40 3 -43 -2 -3 -4 19 -9
49 -11 42 -2 54 1 54 12 0 9 12 22 28 30 15 8 21 15 14 16 -7 0 -24 -12 -39
-26z"/>
<path d="M2840 670 c-9 -6 -10 -10 -3 -10 6 0 15 5 18 10 8 12 4 12 -15 0z"/>
<path d="M3020 670 c13 -8 12 -10 -4 -10 -11 0 -17 -3 -13 -6 3 -3 15 -3 28 1
17 6 19 9 8 16 -8 5 -18 9 -24 9 -5 0 -3 -5 5 -10z"/>
<path d="M2945 633 c-16 -13 -17 -14 -2 -9 9 3 25 9 35 12 14 5 13 4 -3 -9
-11 -9 -15 -17 -8 -17 6 0 15 5 18 10 3 6 11 10 16 10 6 0 7 -5 3 -12 -5 -7
-3 -8 6 -3 10 6 9 11 -5 22 -24 17 -35 16 -60 -4z"/>
<path d="M2715 629 c4 -5 0 -12 -8 -15 -7 -2 -14 -11 -14 -19 0 -8 4 -12 8 -9
4 2 9 -1 11 -8 3 -9 6 -9 12 0 4 7 2 12 -3 12 -6 0 -11 5 -11 10 0 6 7 10 16
10 8 0 12 5 9 10 -4 7 3 8 22 4 15 -4 25 -4 22 0 -10 11 -70 16 -64 5z"/>
<path d="M2793 626 c0 -8 6 -12 14 -9 7 3 10 9 7 14 -8 14 -21 11 -21 -5z"/>
<path d="M2858 623 c7 -3 16 -2 19 1 4 3 -2 6 -13 5 -11 0 -14 -3 -6 -6z"/>
<path d="M2864 601 c4 -5 2 -11 -4 -13 -5 -2 -6 -9 -1 -17 7 -11 12 -11 31 2
22 15 22 15 2 26 -25 13 -35 14 -28 2z m26 -15 c0 -3 -4 -8 -10 -11 -5 -3 -10
-1 -10 4 0 6 5 11 10 11 6 0 10 -2 10 -4z"/>
<path d="M2910 605 c0 -10 29 -24 34 -17 3 6 -3 12 -14 15 -11 3 -20 4 -20 2z"/>
<path d="M2796 572 c-2 -4 -1 -13 3 -20 5 -9 11 -9 26 1 14 11 15 16 5 22 -9
5 -11 4 -6 -3 4 -7 1 -12 -9 -12 -9 0 -13 5 -10 10 3 6 4 10 1 10 -3 0 -7 -4
-10 -8z"/>
<path d="M2738 556 c-14 -10 -12 -12 17 -12 19 0 33 0 32 1 -1 0 -9 6 -17 12
-11 9 -19 8 -32 -1z"/>
</g>
</svg>
